<svg height="512" viewBox="0 0 38 58" width="512" xmlns="http://www.w3.org/2000/svg"><g id="Page-1" fill="none" fill-rule="evenodd"><g id="011---Pregnant-Woman" fill-rule="nonzero" transform="translate(-1)"><path id="Shape" d="m8.19 51.48c.21711935-.6321605.48118836-1.2472073.79-1.84-.03-.01-.05-.03-.08-.04-4.52-2.56-7.9-7.17-7.9-14.6-.0383333-2.4031355.44975286-4.7855421 1.43-6.98.30033926-.647994.64794409-1.2730142 1.04-1.87 1.18684967-1.7759638 2.73782313-3.279215 4.55-4.41l5.98-.74 15.5 8.83c-.1619191 2.8041869.3525292 5.6062152 1.5 8.17 3.241 6.482 5.169 15.589 5.784 18.812.0561122.2931443-.0216505.5960297-.212038.8258877-.1903875.2298581-.4734962.3626589-.771962.3621123h-27.749c-.27798908.0007016-.54372482-.1143445-.733443-.3175327-.18971817-.2031882-.28629517-.476179-.266557-.7534673.14176948-1.8580401.52464889-3.6897432 1.139-5.449z" fill="#ff5364"/><path id="Shape" d="m22.43 52.72c.0302975.2627752-.0456076.526768-.2108495.7333204-.1652419.2065523-.4061338.3385557-.6691505.3666796-.9193784.1078173-1.844322.1612436-2.77.16-3.6804766.0375427-7.3148834-.8204381-10.59-2.5.21711935-.6321605.48118836-1.2472073.79-1.84 3.7999279 1.9533681 8.0991434 2.7198408 12.34 2.2.2639721-.0309441.5294037.0444686.7376729.209583.2082693.1651143.3422411.4063457.3723271.670417z" fill="#df4d60"/><path id="Shape" d="m37 31s-13-1-24-7c-1.3692257-1.2505617-3.14603539-1.9612856-5-2 .07185246-1.2891805.83762281-2.437836 2-3 1.08406-.5047895 2.3069704-.6281378 3.47-.35-5.59-1.87-6.08-8.8-1.47-10.65.6515242-.25891016 1.2747835-.58394325 1.86-.97 2.2801619-1.59139076 4.1874608-3.65905299 5.59-6.06.3646126-.60150128 1.0166185-.96920227 1.72-.97h11.78c3.03 0 5.11 3.37 5.05 6 0 5 1 17-1 25z" fill="#fdd7ad"/><path id="Shape" d="m33 23.938c-.2164761.0006557-.4272125-.0695898-.6-.2-2.37-1.777-5.6-2.018-8.45-2.231-1.4410235-.0429317-2.872372-.250957-4.266-.62-.3394023-.1130745-.5926985-.3986287-.6644742-.749097-.0717757-.3504684.0488734-.7126063.3165-.9500001.2676266-.2373937.6415719-.3139775.9809742-.2009029 1.2382462.3093981 2.5062383.4844092 3.782.522 2.969.222 6.663.5 9.5 2.627.3443443.2582582.4847973.7078856.3486833 1.1162278-.136114.4083421-.5182529.6837722-.9486833.6837722z" fill="#f9c795"/><path id="Shape" d="m30.05 22.51c-3.6-1.16-7.73-.74-10.05-1.51-2.26-.76-4.47-1.95-6.53-2.35-5.59-1.87-6.08-8.8-1.47-10.65.6515242-.25891016 1.2747835-.58394325 1.86-.97 2.3247484.64684481 4.7269411.97319312 7.14.97 6 0 6-8 6-8h4c-2.6 10.41-1.82 18.28-.95 22.51z" fill="#ff5364"/><path id="Shape" d="m25 36c.002745 1.4156558-.7476218 2.725941-1.97 3.44-.6128831.3684219-1.3149084.562084-2.03.56-.1369742.0035643-.2740231-.003121-.41-.02-2.1443687-.2209617-3.7279164-2.1014901-3.5806561-4.2521774.1472604-2.1506872 1.9723517-3.7978218 4.1268251-3.7244362s3.8632554 1.8408908 3.863831 3.9966136z" fill="#fdd7ad"/><path id="Shape" d="m11.71 37.66-1.1.25c-.04-.02-4.61-2.26-4.61-5.91.06101353-1.2372204-.46530406-2.4307012-1.42-3.22-.6286315-.454889-1.37514396-.7187725-2.15-.76.30033926-.647994.64794409-1.2730142 1.04-1.87.83809553.1695241 1.62748031.5249181 2.31 1.04 1.46660543 1.1560736 2.29176114 2.943911 2.22 4.81 0 2.02 2.68 3.72 3.4 4.07l-.43.89z" fill="#802d40"/><path id="Shape" d="m16 47c-6 0-5-3-7-5s-3-2-3-3c0-1.29.84-1.75 2.24-1.9.66114432-.0678992 1.32537944-.1012779 1.99-.1-.03-.13-.06-.26-.08-.4-.0115262-.0390368-.0182425-.079335-.02-.12-.0909867-.487983-.13452309-.9836277-.13-1.48 0-2 4-3 4 0 0 1.93 2.8 4.79 6.59 4.98.1359769.016879.2730258.0235643.41.02.7150916.002084 1.4171169-.1915781 2.03-.56.07 1.68-.17 7.56-7.03 7.56z" fill="#fdd7ad"/><path id="Shape" d="m13.89 42.45c-.1659906.3394325-.5121694.5533632-.89.55-.1568573.0017042-.3116173-.0361261-.45-.11-2.1534294-1.2096532-3.70733054-3.2597885-4.29-5.66-.01080303-.0425952-.0175003-.0861274-.02-.13.66114432-.0678992 1.32537944-.1012779 1.99-.1-.03-.13-.06-.26-.08-.4.0212403.05522.0379619.1120735.05.17.4508667 1.8271102 1.6236121 3.3931764 3.25 4.34.2368736.1184807.4166003.3266797.4992264.5783137s.061304.5258491-.0592264.7616863z" fill="#f9c795"/></g></g></svg>